PathFileType	3	(X/Y/Z)	E:\ViconData\BIOM9541 2025\Week 7\Wed1100\Hanif 90 squat 7-5 Squat 01.trc
DataRate	CameraRate	NumFrames	NumMarkers	Units	OrigDataRate	OrigDataStartFrame	OrigNumFrames
200.0	200.0	16	19	mm	200.0	416	1661	
Frame#	Time	C7			CLAV			RBAK			LASI			RASI			LPSI			RPSI			LTHI			LKNE			LTIB			LANK			LHEE			LTOE			RTHI			RKNE			RTIB			RANK			RHEE			RTOE			
		X1	Y1	Z1	X2	Y2	Z2	X3	Y3	Z3	X4	Y4	Z4	X5	Y5	Z5	X6	Y6	Z6	X7	Y7	Z7	X8	Y8	Z8	X9	Y9	Z9	X10	Y10	Z10	X11	Y11	Z11	X12	Y12	Z12	X13	Y13	Z13	X14	Y14	Z14	X15	Y15	Z15	X16	Y16	Z16	X17	Y17	Z17	X18	Y18	Z18	X19	Y19	Z19	
416	2.075	321.51544	1016.3192	-1223.8732	178.65265	934.74487	-1213.4988	336.87527	934.76123	-1374.7432	275.57275	581.98932	-1090.5724	253.02065	596.04352	-1352.1252	436.27081	647.22052	-1184.7588	431.31448	643.46655	-1258.4746	180.5784	450.2804	-926.27161	93.346977	352.36008	-880.12982	209.33104	184.8398	-913.422	299.67447	67.336449	-966.17596	324.55887	54.98925	-1032.3612	162.15172	38.585037	-947.01868	281.26413	532.78345	-1439.1237	84.103142	330.29462	-1537.2695	124.58699	257.34558	-1531.1848	289.26956	69.749527	-1434.5835	315.40747	54.876987	-1361.6106	161.33211	39.140255	-1464.2125
417	2.08	321.66644	1019.8519	-1223.8126	178.82361	938.39136	-1213.3186	337.05878	938.26306	-1374.7888	275.52786	585.2923	-1090.6597	252.89905	599.29584	-1352.1042	436.16916	650.60779	-1184.7043	431.21527	646.87726	-1258.4979	181.08525	451.71039	-926.33484	94.127144	353.06775	-880.42938	209.80153	185.28447	-913.45874	299.70486	67.277359	-966.25653	324.57428	54.953789	-1032.3086	162.11926	38.583076	-946.9455	281.11331	535.2002	-1439.1772	84.979538	331.22281	-1536.8569	125.23662	258.11551	-1530.9113	289.32077	69.784088	-1434.603	315.47952	54.802048	-1361.6788	161.28442	39.206009	-1464.2905
418	2.085	321.85504	1023.4664	-1223.8367	178.49072	942.27307	-1212.4167	337.17151	941.88049	-1374.7469	275.53336	588.685	-1090.8364	252.7901	602.67706	-1352.1095	436.08987	654.14856	-1184.7734	431.09369	650.33923	-1258.536	181.53192	453.07617	-926.3233	95.060555	353.83835	-880.77454	210.24977	185.56473	-913.64087	299.75613	67.219536	-966.25281	324.60361	54.995083	-1032.2639	162.08344	38.625195	-946.88702	280.9892	537.73547	-1439.2509	85.787918	332.20398	-1536.3984	125.93732	258.97601	-1530.5669	289.36282	69.878319	-1434.6187	315.50323	54.755608	-1361.6835	161.23671	39.279118	-1464.2914
419	2.09	322.00757	1027.0935	-1223.8545	179.2108	945.87952	-1213.3647	337.27112	945.50525	-1374.7855	275.40695	592.11725	-1090.7994	252.73398	606.02618	-1352.0461	435.95566	657.74872	-1184.76	430.92816	653.84534	-1258.5638	182.03572	454.48639	-926.38019	95.886368	354.6366	-881.14087	210.61339	185.89314	-913.69562	299.81653	67.157753	-966.29138	324.7027	55.016521	-1032.2736	162.08205	38.635387	-946.78607	280.91818	540.16541	-1439.3199	86.737495	333.22894	-1536.0228	126.71496	259.78104	-1530.2191	289.44568	69.918228	-1434.6259	315.55746	54.709927	-1361.6733	161.22813	39.336929	-1464.3518
420	2.095	322.20551	1030.7628	-1223.9193	179.37901	949.59613	-1213.4659	337.53632	949.27185	-1374.8765	275.31705	595.68768	-1090.8412	252.62245	609.4032	-1352.0156	435.83801	661.37018	-1184.9208	430.83844	657.53052	-1258.6273	182.51765	456.01459	-926.40015	96.790382	355.45285	-881.58069	211.11678	186.36888	-913.74493	300.41623	66.828354	-966.5929	324.71252	54.857761	-1032.1385	162.13092	38.618896	-946.81897	280.76929	542.7735	-1439.4136	87.69664	334.11847	-1535.5232	127.52431	260.55298	-1529.8707	289.52408	69.88829	-1434.6215	315.62671	54.632771	-1361.7446	161.27052	39.266048	-1464.3431
421	2.1	322.358	1034.4885	-1223.9666	179.57782	953.38953	-1213.6069	337.65939	952.98639	-1374.8579	274.32306	599.73242	-1089.0021	252.57867	612.78406	-1352.0569	435.6976	664.96912	-1185.0466	430.7272	661.30151	-1258.6361	183.05046	457.66019	-926.4754	97.703667	356.37131	-881.97296	211.58553	186.81099	-913.90131	299.86838	66.9897	-966.39319	324.79922	54.785774	-1032.0881	162.16756	38.569069	-946.84497	280.7005	545.25739	-1439.4493	88.690552	335.03278	-1535.0542	128.34772	261.30319	-1529.4945	289.60889	69.852905	-1434.6122	315.66064	54.521282	-1361.7855	161.30557	39.227947	-1464.3835
422	2.105	322.52905	1038.3076	-1224.054	179.73526	957.27423	-1213.6327	337.82486	956.94421	-1374.9794	274.93884	603.01984	-1090.6948	252.4874	616.36426	-1352.1191	435.47632	668.81866	-1185.0527	430.58215	665.099	-1258.6963	183.54225	459.19058	-926.62439	98.627243	357.15649	-882.49524	212.0388	187.16803	-914.0415	300.47186	66.264862	-967.15405	324.79108	54.730152	-1031.9679	162.16623	38.542618	-946.7276	280.54477	547.87518	-1439.519	89.698868	336.08765	-1534.5945	129.23503	262.21957	-1529.1827	289.70734	69.854027	-1434.5931	315.68756	54.427814	-1361.8184	161.30112	39.233646	-1464.3969
423	2.11	322.65906	1042.2577	-1224.0511	176.742	963.80994	-1202.8591	337.88412	960.89801	-1375.0134	274.77972	606.66711	-1090.5952	252.31711	619.99835	-1351.9749	435.25424	672.72797	-1184.8701	433.28854	671.97083	-1262.058	184.01329	460.74869	-926.76355	99.60424	358.00189	-882.98724	212.51663	187.57211	-914.14465	300.52161	66.149261	-967.14282	324.84293	54.787575	-1031.9133	162.14531	38.587738	-946.60596	280.46936	550.53314	-1439.4799	90.696121	337.13226	-1534.0004	130.09688	263.11658	-1528.7595	289.76215	69.962456	-1434.5817	315.72397	54.432423	-1361.7355	161.29295	39.296623	-1464.3928
424	2.115	322.78668	1046.2621	-1224.0887	179.38789	965.39807	-1212.9357	337.96017	964.90387	-1374.9933	274.634	610.4494	-1090.6676	252.21002	623.77747	-1352.0657	435.01532	676.64856	-1184.6432	429.92847	672.2699	-1258.6652	184.62085	462.51178	-926.89838	100.51734	358.75275	-883.53766	213.03392	187.89427	-914.44153	300.5379	66.46106	-966.6438	325.06982	54.978001	-1032.016	162.14014	38.670822	-946.52594	280.34903	553.28241	-1439.4487	91.789085	338.30075	-1533.5106	131.00433	264.09366	-1528.3901	289.81235	70.059937	-1434.5887	315.7186	54.388458	-1361.6573	161.28835	39.406223	-1464.4385
425	2.12	322.88116	1050.2933	-1224.1188	176.89383	971.87268	-1202.91	338.06128	969.02356	-1375.1331	274.4668	614.33887	-1090.7212	252.03392	627.53448	-1352.0992	434.81494	680.57562	-1184.726	433.22626	679.86755	-1262.3408	185.18758	464.16867	-927.08887	101.56474	359.80466	-884.08508	213.51176	188.29587	-914.65167	299.92804	66.390182	-966.78906	325.02274	54.769814	-1031.8043	162.14958	38.668777	-946.47699	280.19769	556.14069	-1439.6663	92.894386	339.41821	-1532.9919	131.98253	265.06046	-1527.9852	289.89899	70.073555	-1434.5983	315.82437	54.28236	-1361.807	161.3175	39.394623	-1464.4424
426	2.125	322.97076	1054.3818	-1224.1348	176.98236	976.00623	-1202.9113	338.13303	973.16138	-1375.2008	274.3089	618.32642	-1090.8328	251.91933	631.24475	-1352.0323	434.63513	684.54053	-1185.0474	432.97308	683.70514	-1262.3223	185.68848	465.89893	-927.32147	102.52691	360.72305	-884.64337	214.02719	188.88055	-914.82965	299.99979	66.393501	-966.8446	325.05835	54.59948	-1031.683	162.18245	38.602188	-946.48212	280.07104	558.86884	-1439.6061	94.060448	340.44543	-1532.4139	132.97572	265.89774	-1527.519	290.01569	69.996948	-1434.6418	315.93701	54.151905	-1362.0312	161.35756	39.34586	-1464.494
427	2.13	323.08255	1058.5344	-1224.2515	179.69315	977.87506	-1212.6672	338.22766	977.32965	-1375.248	274.16806	622.27679	-1090.9297	251.74979	635.10535	-1352.099	434.44861	688.60486	-1185.3713	432.88443	687.74542	-1262.5393	186.28119	467.74933	-927.56281	103.5491	361.77426	-885.30975	214.57507	189.31456	-915.11426	300.04865	66.336281	-966.91614	325.1236	54.477406	-1031.5883	162.2117	38.604996	-946.41718	280.0007	561.65295	-1439.6385	95.201874	341.54202	-1531.7972	134.03642	266.8822	-1527.1492	290.09863	69.984673	-1434.7001	316.19739	54.0284	-1362.4242	161.38953	39.322311	-1464.5403
428	2.135	323.19861	1062.7821	-1224.2715	180.392	982.05603	-1213.6678	338.31091	981.63342	-1375.3324	273.96536	626.2561	-1091.0787	251.61127	639.04004	-1352.1799	434.17722	692.80573	-1185.2819	429.6749	689.0899	-1259.2045	186.60803	469.09229	-927.94989	104.65287	362.68781	-886.04694	215.11682	189.74452	-915.38531	300.10822	66.270508	-966.92297	325.14166	54.412395	-1031.5111	162.18721	38.591938	-946.27246	279.85867	564.65234	-1439.726	96.402008	342.81482	-1531.2881	135.03412	267.99283	-1526.7772	290.18765	70.080734	-1434.7487	316.09933	54.035522	-1362.2596	161.38293	39.406166	-1464.5859
429	2.14	323.26971	1067.0056	-1224.2888	177.17474	988.65326	-1202.7162	338.38596	985.89758	-1375.4064	273.7738	630.2146	-1091.1664	251.44073	643.02527	-1352.1395	433.89844	696.98779	-1185.082	429.22833	692.81219	-1259.0782	187.01276	470.64575	-928.15527	105.68697	363.60483	-886.77228	215.65121	190.23364	-915.57617	300.18451	66.201836	-966.95508	325.90701	54.971832	-1031.796	162.19714	38.624321	-946.14844	279.78809	567.47992	-1439.6594	97.603271	344.07605	-1530.6923	136.04541	269.06122	-1526.3364	290.25641	70.200325	-1434.7742	316.15234	53.989838	-1362.2291	161.37659	39.453346	-1464.5853
430	2.145	323.31262	1071.3013	-1224.3037	177.16119	993.00189	-1202.6129	338.41348	990.22803	-1375.4214	273.509	634.14636	-1091.1377	251.25325	647.08868	-1352.116	433.55615	701.16895	-1184.8506	428.97458	697.05005	-1259.0493	187.56644	472.45251	-928.47809	106.74299	364.62762	-887.46167	216.21025	190.60852	-915.91998	300.20923	66.118263	-966.98145	325.96475	54.968914	-1031.751	162.2168	38.606453	-946.07324	279.67136	570.50104	-1439.8237	98.834816	345.30228	-1530.0762	137.10194	270.0889	-1525.8699	290.34262	70.244461	-1434.7928	316.15994	53.936687	-1362.1862	161.37074	39.49345	-1464.6064
431	2.15	323.42557	1075.6018	-1224.4244	179.99014	995.05682	-1212.6672	338.49521	994.54822	-1375.4948	273.18506	638.27435	-1091.2144	251.05035	651.20959	-1352.1897	433.31287	705.36163	-1184.9879	431.38153	704.41217	-1262.0546	188.13322	474.36597	-928.85187	107.85605	365.63571	-888.245	216.8015	191.23639	-916.17432	300.23029	66.135284	-966.95239	326.02274	54.8927	-1031.7157	162.20352	38.590538	-946.04474	279.58344	573.39819	-1439.817	100.08828	346.46457	-1529.4067	138.1839	271.05219	-1525.3688	290.46057	70.245392	-1434.8015	316.23615	53.809608	-1362.3438	161.37413	39.449921	-1464.6311
